<?xml version="1.0" encoding="UTF-8"?>
<svg width="570px" height="395px" viewBox="0 0 570 395" version="1.1" xmlns="http://www.w3.org/2000/svg" xmlns:xlink="http://www.w3.org/1999/xlink">
    <title>undraw_crypto_portfolio_2jy5</title>
    <g id="Landing" stroke="none" stroke-width="1" fill="none" fill-rule="evenodd">
        <g id="Website" transform="translate(-100.000000, -2533.000000)" fill-rule="nonzero">
            <g id="Group-6" transform="translate(100.000000, 2446.000000)">
                <g id="undraw_crypto_portfolio_2jy5" transform="translate(0.000000, 87.000000)">
                    <path d="M51.5027738,172.115493 C40.9528046,180.747269 58.2163742,256.515182 58.2163742,256.515182 C58.2163742,256.515182 62.0527197,372.085243 70.2049591,377.360198 C78.3571985,382.635154 96.5798822,376.880627 103.77299,375.921559 C110.966098,374.962492 104.732063,303.510461 94.1821114,277.13559 C83.6321597,250.76072 91.7844283,212.397177 91.7844283,212.397177 L148.850122,223.426694 C148.850122,223.426694 114.322965,252.67886 115.761604,258.912924 C117.200243,265.146988 154.125083,286.246879 160.838712,287.20597 C167.552342,288.165061 180.499971,248.842491 192.009054,221.988032 C203.518138,195.133572 113.363927,177.869997 113.363927,177.869997 L100.89577,154.372358 C100.89577,154.372358 62.0527548,163.483723 51.5027738,172.115493 Z" id="Path" fill="#2F2E41"></path>
                    <path d="M80.1435668,379.350165 C80.1435668,379.350165 76.6637255,391.529627 80.1435668,391.529627 C83.623408,391.529627 90.0031052,395.009468 99.8626437,393.849521 C109.722182,392.689574 106.822297,380.510147 99.8626437,378.770209 C92.9029905,377.030271 94.6428994,363.110906 94.6428994,363.110906 C92.3229702,358.471118 81.3034905,364.270853 81.3034905,364.270853 L80.1435668,379.350165 Z" id="Path" fill="#2F2E41"></path>
                    <path d="M129.547174,282.498518 C129.547174,282.498518 123.577134,293.670197 126.97869,294.404018 C130.380245,295.137839 135.882657,299.884857 145.765094,300.830221 C155.647532,301.775585 155.381345,289.25849 148.945104,286.090015 C142.508863,282.92154 147.145073,269.682118 147.145073,269.682118 C145.855798,264.657448 133.861039,268.002892 133.861039,268.002892 L129.547174,282.498518 Z" id="Path" fill="#2F2E41"></path>
                    <path d="M57.9765883,68.2942723 C58.9356557,70.212448 54.6197735,94.1896237 54.6197735,94.1896237 L58.4561249,100.903236 C58.4561249,100.903236 80.5151542,92.2715006 77.1583394,90.8328557 C73.8015246,89.3942108 74.2810612,71.6511046 74.2810612,71.6511046 C74.2810612,71.6511046 57.0175151,66.3760966 57.9765883,68.2942723 Z" id="Path" fill="#FFB9B9"></path>
                    <circle id="Oval" fill="#2F2E41" cx="66.2793252" cy="46.282556" r="29.4026403"></circle>
                    <circle id="Oval" fill="#2F2E41" cx="64.2515575" cy="18.7568526" r="12.1666003"></circle>
                    <path d="M69.574428,24.2674665 C69.9954717,24.3111823 70.4184911,24.3332474 70.8417982,24.3332474 C77.5612389,24.3332474 83.0084218,18.8860644 83.0084218,12.1666237 C83.0084218,5.44718297 77.5612389,1.66157686e-14 70.8417982,1.66157686e-14 C70.4184911,1.66157686e-14 69.9954717,0.0220650435 69.574428,0.0657809231 C75.7693806,0.714846745 80.4736621,5.93776155 80.4736621,12.1666237 C80.4736621,18.3954858 75.7693806,23.6184006 69.574428,24.2674665 L69.574428,24.2674665 Z" id="Path" fill="#2F2E41"></path>
                    <circle id="Oval" fill="#FFB9B9" cx="67.0879302" cy="60.6215929" r="20.1408302"></circle>
                    <path d="M38.0754797,91.5521606 C31.8413868,92.9907822 21.2914351,108.336188 21.2914351,108.336188 L38.0754797,125.120226 C38.0754797,125.120226 50.0640705,170.197329 51.5027095,172.115505 C60.92768,184.682116 103.293442,156.770122 103.293442,156.770122 C103.293442,156.770122 101.615011,143.103124 102.574125,136.389512 C103.496554,129.93257 98.9775711,116.968005 98.9775711,116.968005 C98.9775711,116.968005 114.802525,110.254393 111.445728,103.540781 C108.08893,96.8271686 87.4685169,81.4817806 78.8367468,86.7567535 C70.2049766,92.0317265 52.9413954,86.7567535 52.9413954,86.7567535 C52.9413954,86.7567535 44.3095668,90.1135391 38.0754797,91.5521606 Z" id="Path" fill="#E6E6E6"></path>
                    <path d="M160.598956,188.180233 C160.598956,188.180233 187.932911,211.677895 194.646546,206.882435 C201.360182,202.086976 168.751195,185.302954 168.751195,185.302954 L160.598956,188.180233 Z" id="Path" fill="#FFB9B9"></path>
                    <path d="M37.835764,180.027982 C41.6721154,184.343887 59.8947932,173.31437 57.5585649,168.416222 C55.2223366,163.518075 40.7130071,173.31437 40.7130071,173.31437 C40.7130071,173.31437 33.9994126,175.712076 37.835764,180.027982 Z" id="Path" fill="#FFB9B9"></path>
                    <path d="M38.0755148,115.0498 L17.9346905,152.454205 C17.9346905,152.454205 40.952752,171.635974 43.8300068,172.115493 C46.7072615,172.595012 38.0754797,185.063169 38.0754797,185.063169 C38.0754797,185.063169 12.1801283,166.840502 2.10971323,157.729178 C-7.96070185,148.617854 21.2914702,108.336194 21.2914702,108.336194 L29.9232754,103.061209 L38.0755148,115.0498 Z" id="Path" fill="#E6E6E6"></path>
                    <path d="M96.5798471,113.611196 L120.077474,150.05651 C120.077474,150.05651 156.04327,190.338194 160.838695,192.256352 C165.634119,194.17451 171.388664,185.063186 171.388664,185.063186 L128.229737,132.792918 L111.925264,103.540751 L105.691201,101.143039 L96.5798471,113.611196 Z" id="Path" fill="#E6E6E6"></path>
                    <ellipse id="Oval" fill="#2F2E41" cx="66.2793252" cy="36.6916191" rx="20.2776886" ry="12.166612"></ellipse>
                    <path d="M123.16501,299.199939 C121.781249,299.201598 120.658272,300.322952 120.658272,301.706712 L120.658272,387.203578 C120.658272,388.587332 121.781255,389.708677 123.16501,389.710274 L414.694462,389.710274 C416.078196,389.708641 417.201164,388.587312 417.201164,387.203578 L417.201164,301.706677 C417.201164,300.322924 416.078214,299.201566 414.694462,299.199939 L123.16501,299.199939 Z" id="Path" fill="#E6E6E6"></path>
                    <polygon id="Path" fill="#FFFFFF" points="126.940046 383.428506 410.919226 383.428506 410.919226 305.481778 126.940046 305.481778"></polygon>
                    <path d="M375.07413,367.258124 C373.589477,367.256365 372.216847,368.047406 371.474011,369.332861 C370.731176,370.618315 370.731176,372.202569 371.474011,373.488023 C372.216847,374.773478 373.589477,375.564519 375.07413,375.56276 L391.683351,375.56276 C393.976612,375.56276 395.835667,373.703703 395.835667,371.410442 C395.835667,369.117181 393.976612,367.258124 391.683351,367.258124 L375.07413,367.258124 Z" id="Path" fill="#4339F2"></path>
                    <rect id="Rectangle" fill="#E6E6E6" x="204.102034" y="359.20388" width="191.733659" height="1.0925"></rect>
                    <circle id="Oval" fill="#4339F2" cx="164.02365" cy="344.455139" r="24.1850532"></circle>
                    <polygon id="Path" fill="#3F3D56" points="204.404923 353.1036 203.799262 352.194523 223.722954 338.911477 237.385415 345.469692 257.037262 332.914492 296.129323 349.590062 327.260092 334.297692 357.489385 346.552985 395.4736 312.910123 396.197938 313.728 357.706862 347.820431 327.302769 335.493815 296.160892 350.791446 257.138985 334.145692 237.461415 346.718431 223.811231 340.166646"></polygon>
                    <path d="M207.652654,367.829322 C206.383054,367.827696 205.209196,368.504084 204.573925,369.60332 C203.938654,370.702556 203.938654,372.057341 204.573925,373.156577 C205.209196,374.255813 206.383054,374.932201 207.652654,374.930575 L244.797637,374.930575 C246.756813,374.928058 248.343707,373.339126 248.343707,371.379948 C248.343707,369.420771 246.756813,367.831839 244.797637,367.829322 L207.652654,367.829322 Z" id="Path" fill="#E6E6E6"></path>
                    <path d="M173.26062,333.635463 L177.039662,333.635463 L169.176322,341.417279 C166.318041,344.234581 161.72716,344.234581 158.86888,341.417279 L151.006581,333.635463 L154.785628,333.635463 L160.758924,339.547094 C162.569235,341.331559 165.477013,341.331559 167.287324,339.547094 L173.26062,333.635463 Z M154.737567,355.274821 L150.958519,355.274821 L158.869956,347.444926 C161.728236,344.627631 166.319111,344.627631 169.177391,347.444926 L177.088828,355.274821 L173.30978,355.274821 L167.287347,349.315111 C165.477037,347.530646 162.569258,347.530646 160.758947,349.315111 L154.737567,355.274821 Z" id="Shape" fill="#FFFFFF"></path>
                    <path d="M161.127097,25.3455557 C159.743336,25.3471904 158.620366,26.4685491 158.620366,27.8523105 L158.620366,113.349194 C158.620366,114.732949 159.743343,115.854296 161.127097,115.855897 L452.656555,115.855897 C454.040287,115.854254 455.163252,114.732926 455.163252,113.349194 L455.163252,27.8522929 C455.163252,26.4685412 454.040307,25.3471826 452.656555,25.3455557 L161.127097,25.3455557 Z" id="Path" fill="#E6E6E6"></path>
                    <polygon id="Path" fill="#FFFFFF" points="164.902134 109.574134 448.881314 109.574134 448.881314 31.6273942 164.902134 31.6273942"></polygon>
                    <path d="M413.036218,93.4037428 C410.742956,93.4037428 408.883899,95.2627991 408.883899,97.5560612 C408.883899,99.8493234 410.742956,101.70838 413.036218,101.70838 L429.645457,101.70838 C431.938719,101.70838 433.797775,99.8493234 433.797775,97.5560612 C433.797775,95.2627991 431.938719,93.4037428 429.645457,93.4037428 L413.036218,93.4037428 L413.036218,93.4037428 Z" id="Path" fill="#4339F2"></path>
                    <rect id="Rectangle" fill="#E6E6E6" x="242.064122" y="85.3495025" width="191.733659" height="1.0925"></rect>
                    <circle id="Oval" fill="#4339F2" cx="201.985738" cy="70.6007554" r="24.1850532"></circle>
                    <polygon id="Path" fill="#3F3D56" points="242.366923 79.2487077 241.761262 78.3396308 261.684954 65.0571692 275.347415 71.6153846 294.999262 59.0601846 295.264677 59.1730154 334.091323 75.7357538 365.222092 60.4433846 395.451385 72.6986769 433.4356 39.0552308 434.159938 39.8731077 395.668862 73.9655385 365.264769 61.6395077 334.123477 76.9371385 295.101569 60.2913846 275.423415 72.8635385 261.773231 66.3111692"></polygon>
                    <path d="M245.614742,93.9749412 C243.655566,93.9774552 242.068672,95.5663869 242.068672,97.5255648 C242.068672,99.4847426 243.655566,101.073674 245.614742,101.076188 L282.759725,101.076188 C284.72068,101.076188 286.310348,99.48652 286.310348,97.5255648 C286.310348,95.5646095 284.72068,93.9749412 282.759725,93.9749412 L245.614742,93.9749412 Z" id="Path" fill="#E6E6E6"></path>
                    <path d="M211.716684,67.7779049 C212.168738,64.7514154 209.864395,63.1244483 206.713546,62.0390865 L207.735646,57.9393249 L205.239391,57.3173935 L204.244306,61.3091182 C203.588952,61.1456422 202.915148,60.9914031 202.245599,60.8385846 L203.247794,56.8205582 L200.753673,56.1986268 L199.730865,60.2969735 C199.187833,60.1732982 198.654746,60.0510434 198.137302,59.9223929 L198.140144,59.9096015 L194.69856,59.0502695 L194.034694,61.7156831 C194.034694,61.7156831 195.88627,62.1400203 195.847177,62.1663163 C196.565581,62.2523359 197.082756,62.8978599 197.010006,63.6177292 L195.845756,68.2882215 C195.933966,68.3102101 196.020631,68.3379909 196.105185,68.3713831 L195.842196,68.3059938 L194.209541,74.8486994 C194.137066,75.0793599 193.975625,75.27161 193.760969,75.3828753 C193.546314,75.4941406 193.296158,75.5152395 193.065898,75.4414994 C193.09078,75.4777455 191.251995,74.9887323 191.251995,74.9887323 L190.013113,77.8460575 L193.261365,78.6556388 C193.865524,78.8070542 194.457605,78.9655375 195.03973,79.1147957 L194.006971,83.2621858 L196.499666,83.8841172 L197.523187,79.7815086 C198.203405,79.9663114 198.864424,80.1368963 199.511236,80.2975311 L198.491983,84.3809526 L200.987525,85.0028782 L202.020283,80.8640234 C206.275698,81.6693311 209.476339,81.3445071 210.821843,77.4963582 C211.907199,74.3973646 210.768532,72.6097628 208.529566,71.4433732 C210.160058,71.0659514 211.388335,69.9933868 211.715983,67.7778932 L211.716684,67.7779049 Z M206.014112,75.773444 C205.242209,78.8724375 200.025102,77.1978418 198.332739,76.7770591 L199.703119,71.2834634 C201.394768,71.7056668 206.818712,72.5415557 206.014825,75.773444 L206.014112,75.773444 Z M206.785307,67.7331292 C206.081635,70.5520686 201.738785,69.1198369 200.329312,68.7687286 L201.571754,63.7861803 C202.981227,64.1373003 207.51883,64.7926425 206.78529,67.7331292 L206.785307,67.7331292 Z" id="Shape" fill="#FFFFFF"></path>
                    <path d="M275.820825,162.27275 C274.437065,162.274382 273.314094,163.395739 273.314094,164.779499 L273.314094,250.276383 C273.314094,251.660138 274.437071,252.781484 275.820825,252.783086 L567.350283,252.783086 C568.734017,252.781449 569.85698,251.660117 569.85698,250.276383 L569.85698,164.779482 C569.85698,163.395731 568.734034,162.274374 567.350283,162.27275 L275.820825,162.27275 Z" id="Path" fill="#E6E6E6"></path>
                    <polygon id="Path" fill="#FFFFFF" points="279.595862 246.501311 563.575042 246.501311 563.575042 168.554589 279.595862 168.554589"></polygon>
                    <path d="M527.729946,230.330932 C525.436684,230.330932 523.577627,232.189988 523.577627,234.48325 C523.577627,236.776512 525.436684,238.635569 527.729946,238.635569 L544.339185,238.635569 C546.632447,238.635569 548.491503,236.776512 548.491503,234.48325 C548.491503,232.189988 546.632447,230.330932 544.339185,230.330932 L527.729946,230.330932 L527.729946,230.330932 Z" id="Path" fill="#4339F2"></path>
                    <rect id="Rectangle" fill="#E6E6E6" x="356.75785" y="222.276691" width="191.733659" height="1.0925"></rect>
                    <circle id="Oval" fill="#4339F2" cx="316.679466" cy="207.52795" r="24.1850532"></circle>
                    <polygon id="Path" fill="#3F3D56" points="357.060862 216.176154 356.454615 215.267077 376.378308 201.984615 390.041354 208.542831 409.692615 195.987631 409.958615 196.100462 448.784677 212.6632 479.916031 197.370831 510.145323 209.625538 548.129538 175.982677 548.853877 176.801138 510.3628 210.892985 479.958708 198.566954 448.816831 213.864585 409.795508 197.218831 390.116769 209.790985 376.467169 203.2392"></polygon>
                    <path d="M360.30847,230.902136 C358.347515,230.902136 356.757847,232.491804 356.757847,234.45276 C356.757847,236.413715 358.347515,238.003383 360.30847,238.003383 L397.453453,238.003383 C399.414408,238.003383 401.004076,236.413715 401.004076,234.45276 C401.004076,232.491804 399.414408,230.902136 397.453453,230.902136 L360.30847,230.902136 Z" id="Path" fill="#E6E6E6"></path>
                    <polygon id="Path" fill="#FFFFFF" points="316.6768 223.467477 326.467354 209.679323 316.6768 215.46 316.6768 215.46 306.892092 209.679323 316.676215 223.467477 316.676215 223.467477 316.6768 223.467477 316.6768 223.467477"></polygon>
                    <polygon id="Path" fill="#FFFFFF" points="316.676215 213.607354 316.676215 213.607354 316.6768 213.607354 316.6768 213.607354 326.461508 207.823754 316.6768 191.5884 316.6768 191.5884 316.6768 191.5884 316.676215 191.5884 316.676215 191.5884 306.892092 207.823754"></polygon>
                </g>
            </g>
        </g>
    </g>
</svg>