<?xml version="1.0" encoding="UTF-8"?>
<svg width="100px" height="100px" viewBox="0 0 100 100" version="1.1" xmlns="http://www.w3.org/2000/svg" xmlns:xlink="http://www.w3.org/1999/xlink">
    <title>Facebook_f_logo_(2019)</title>
    <g id="Landing" stroke="none" stroke-width="1" fill="none" fill-rule="evenodd">
        <g id="Website" transform="translate(-672.000000, -3400.000000)" fill-rule="nonzero">
            <g id="Group-13" transform="translate(246.000000, 3114.000000)">
                <g id="Group-10" transform="translate(126.000000, 286.000000)">
                    <g id="Facebook_f_logo_(2019)" transform="translate(300.000000, 0.000000)">
                        <circle id="Oval" fill="#1977F3" cx="49.9677892" cy="49.9677892" r="49.9677892"></circle>
                        <path d="M69.418055,64.4149519 L71.6315065,49.9677892 L57.7745975,49.9677892 L57.7745975,40.5939978 C57.7745975,36.6449192 59.7069757,32.7871895 65.9186936,32.7871895 L72.2217602,32.7871895 L72.2217602,20.4902367 C72.2217602,20.4902367 66.5019205,19.5135073 61.0350466,19.5135073 C49.6234745,19.5135073 42.1609809,26.4279082 42.1609809,38.9567463 L42.1609809,49.9677892 L29.4705256,49.9677892 L29.4705256,64.4149519 L42.1609809,64.4149519 L42.1609809,99.3312709 C44.7046934,99.7318003 47.3116474,99.9355783 49.9677892,99.9355783 C52.623931,99.9355783 55.2308849,99.7247734 57.7745975,99.3312709 L57.7745975,64.4149519 L69.418055,64.4149519 Z" id="Path" fill="#FFFFFF"></path>
                    </g>
                </g>
            </g>
        </g>
    </g>
</svg>