<?xml version="1.0" encoding="UTF-8"?>
<svg width="100px" height="100px" viewBox="0 0 100 100" version="1.1" xmlns="http://www.w3.org/2000/svg" xmlns:xlink="http://www.w3.org/1999/xlink">
    <title>Google__G__Logo</title>
    <g id="Landing" stroke="none" stroke-width="1" fill="none" fill-rule="evenodd">
        <g id="Website" transform="translate(-372.000000, -3400.000000)" fill-rule="nonzero">
            <g id="Group-13" transform="translate(246.000000, 3114.000000)">
                <g id="Google__G__Logo" transform="translate(126.000000, 286.000000)">
                    <path d="M98.9375042,51.1250083 C98.9375042,47.8333417 98.6458375,44.7083417 98.1458375,41.666675 L51.0625042,41.666675 L51.0625042,60.4583417 L78.0208375,60.4583417 C76.8125042,66.6250083 73.2708375,71.8333417 68.0208375,75.3750083 L68.0208375,87.8750083 L84.1041708,87.8750083 C93.5208375,79.166675 98.9375042,66.3333417 98.9375042,51.1250083 Z" id="Path" fill="#4285F4"></path>
                    <path d="M51.0625042,100.000008 C64.5625042,100.000008 75.8541708,95.5000083 84.1041708,87.8750083 L68.0208375,75.3750083 C63.5208375,78.3750083 57.8125042,80.2083417 51.0625042,80.2083417 C38.0208375,80.2083417 26.9791708,71.416675 23.0208375,59.541675 L6.43750417,59.541675 L6.43750417,72.416675 C14.6458375,88.7500083 31.5208375,100.000008 51.0625042,100.000008 Z" id="Path" fill="#34A853"></path>
                    <path d="M23.0208375,59.541675 C21.9791708,56.541675 21.4375042,53.3333417 21.4375042,50.0000083 C21.4375042,46.666675 22.0208375,43.4583417 23.0208375,40.4583417 L23.0208375,27.5833417 L6.43750417,27.5833417 C3.0208375,34.3333417 1.06250417,41.916675 1.06250417,50.0000083 C1.06250417,58.0833417 3.0208375,65.666675 6.43750417,72.416675 L23.0208375,59.541675 Z" id="Path" fill="#FBBC05"></path>
                    <path d="M51.0625042,19.791675 C58.4375042,19.791675 65.0208375,22.3333417 70.2291708,27.291675 L84.4791708,13.041675 C75.8541708,4.95834167 64.5625042,8.33333331e-06 51.0625042,8.33333331e-06 C31.5208375,8.33333331e-06 14.6458375,11.2500083 6.43750417,27.5833417 L23.0208375,40.4583417 C26.9791708,28.5833417 38.0208375,19.791675 51.0625042,19.791675 Z" id="Path" fill="#EA4335"></path>
                </g>
            </g>
        </g>
    </g>
</svg>