<?xml version="1.0" encoding="UTF-8"?>
<svg width="36px" height="36px" viewBox="0 0 36 36" version="1.1" xmlns="http://www.w3.org/2000/svg" xmlns:xlink="http://www.w3.org/1999/xlink">
    <title>Logo</title>
    <g id="Symbols" stroke="none" stroke-width="1" fill="none" fill-rule="evenodd">
        <g id="Craftwork-Logo" fill="#000000">
            <path d="M36,18 C36,27.9411 27.9411,36 18,36 C8.05888,36 0,27.9411 0,18 C0,8.05888 8.05888,0 18,0 C27.9411,0 36,8.05888 36,18 Z M18.0839,20.5583 C21.4015,15.8667 21.5479,13.0233 18.0839,8 C14.5537,13.1305 15.0088,15.8499 18.0839,20.5583 Z M16.5085,26.6697 C17.0358,20.9478 15.741,18.4122 10.2294,15.7939 C9.73741,22.0021 11.4912,24.1297 16.5085,26.6697 Z M19.6807,26.6697 C19.1534,20.9478 20.4483,18.4122 25.9599,15.7939 C26.4518,22.0021 24.6981,24.1297 19.6807,26.6697 Z" id="Logo"></path>
        </g>
    </g>
</svg>