<?xml version="1.0" encoding="UTF-8"?>
<svg width="570px" height="445px" viewBox="0 0 570 445" version="1.1" xmlns="http://www.w3.org/2000/svg" xmlns:xlink="http://www.w3.org/1999/xlink">
    <title>undraw_pay_online_b-1-hk</title>
    <g id="Landing" stroke="none" stroke-width="1" fill="none" fill-rule="evenodd">
        <g id="Website" transform="translate(-100.000000, -1081.000000)" fill-rule="nonzero">
            <g id="Group-8" transform="translate(100.000000, 1019.000000)">
                <g id="undraw_pay_online_b-1-hk" transform="translate(0.000000, 62.000000)">
                    <path d="M502.201596,412.562885 C502.160066,412.379998 498.142767,394.060817 506.347127,378.84559 C514.551462,363.631096 532.06444,356.921153 532.24042,356.854851 L533.040815,356.554653 L533.229894,357.388938 C533.271424,357.571819 537.288724,375.891006 529.084364,391.106227 C520.88037,406.320721 503.367051,413.030664 503.191071,413.096966 L502.390309,413.397164 L502.201596,412.562885 Z M531.943122,358.590457 C528.435145,360.099446 514.590104,366.703737 507.660844,379.553831 C500.730857,392.405372 502.821658,407.60312 503.488356,411.361385 C506.994879,409.856042 520.834454,403.261951 527.770634,390.398011 C534.700254,377.547197 532.610186,362.350915 531.943122,358.590457 Z" id="Shape" fill="#3F3D56"></path>
                    <path d="M522.814597,385.769245 C508.070928,394.639525 502.392673,412.258345 502.392673,412.258345 C502.392673,412.258345 520.618631,415.495598 535.362307,406.62533 C550.105983,397.755062 555.784232,380.136229 555.784232,380.136229 C555.784232,380.136229 537.558267,376.898964 522.814597,385.769245 Z" id="Path" fill="#D0CDE1"></path>
                    <path d="M202.481618,332.394678 C200.728382,332.394678 198.957255,332.366905 197.218831,332.312604 L197.258326,331.049978 C199.754573,331.127737 202.302037,331.149336 204.810005,331.114776 L204.827282,332.378634 C204.04663,332.389124 203.264743,332.394472 202.481618,332.394678 Z M212.431411,332.101546 L212.357355,330.840158 C214.857304,330.692666 217.389343,330.485318 219.883112,330.224274 L220.015185,331.480726 C217.502275,331.744215 214.951108,331.95344 212.431411,332.101546 L212.431411,332.101546 Z M189.621489,331.904687 C187.10056,331.711525 184.553096,331.458507 182.04945,331.151187 L182.203729,329.8972 C184.688247,330.201442 187.215963,330.453222 189.717757,330.644532 L189.621489,331.904687 Z M227.561915,330.514936 L227.372463,329.26589 C229.856361,328.888831 232.359394,328.451296 234.809971,327.964388 L235.056202,329.203557 C232.58649,329.694168 230.064948,330.135406 227.561922,330.514936 L227.561915,330.514936 Z M174.520913,330.052712 C172.030537,329.630583 169.516705,329.145552 167.049464,328.609891 L167.317604,327.374419 C169.76602,327.906377 172.260408,328.38773 174.731971,328.806137 L174.520913,330.052712 Z M242.483833,327.549066 L242.18021,326.322232 C244.618445,325.719309 247.07026,325.052826 249.467761,324.341906 L249.826924,325.553945 C247.410908,326.270395 244.940602,326.94182 242.483833,327.549066 Z M159.652994,326.824572 C157.210133,326.174746 154.75184,325.460123 152.346314,324.699217 L152.727076,323.494602 C155.114397,324.249334 157.553864,324.958403 159.977597,325.602674 L159.652994,326.824572 Z M257.070038,323.22183 L256.655303,322.028306 C259.021334,321.205686 261.400945,320.31641 263.729331,319.384574 L264.198343,320.558331 C261.852704,321.496986 259.454584,322.393043 257.070038,323.22183 Z M145.126651,322.231977 C142.754137,321.35999 140.366816,320.418884 138.031642,319.435198 L138.522247,318.270078 C140.839531,319.246358 143.208336,320.180059 145.562954,321.045877 L145.126651,322.231977 Z M271.180451,317.575816 L270.657132,316.425509 C272.929359,315.39307 275.21334,314.290897 277.445434,313.149848 L278.020584,314.275472 C275.771157,315.425159 273.469955,316.535357 271.180451,317.575816 Z M284.702741,310.663479 L284.076985,309.566242 C286.256028,308.322751 288.431368,307.015694 290.541297,305.680864 L291.216425,306.748483 C289.090451,308.093796 286.899067,309.411343 284.702741,310.663479 L284.702741,310.663479 Z M297.545593,302.538502 L296.822325,301.502972 C298.874242,300.06941 300.921844,298.567959 302.908345,297.041212 L303.678508,298.043407 C301.677195,299.581883 299.613555,301.094443 297.545593,302.538502 L297.545593,302.538502 Z M104.917385,300.758731 C102.877518,299.277028 100.839781,297.724978 98.860345,296.144536 L99.6490241,295.157147 C101.613312,296.725248 103.635605,298.265575 105.659756,299.735549 L104.917385,300.758731 Z M309.600991,293.273089 L308.786397,292.30668 C310.698848,290.692916 312.602041,289.011271 314.44414,287.30802 L315.301933,288.236166 C313.446254,289.952371 311.52823,291.646977 309.600991,293.273089 L309.600991,293.273089 Z M93.0212132,291.260047 C91.1214133,289.596298 89.233955,287.865899 87.411579,286.116366 L88.2866554,285.204265 C90.0954259,286.940837 91.9683815,288.658275 93.8536786,290.309683 L93.0212132,291.260047 Z M320.768998,282.943147 L319.869238,282.055729 C321.63232,280.269171 323.376318,278.420285 325.051796,276.56091 L325.991051,277.406361 C324.3026,279.280549 322.545666,281.143008 320.768985,282.943147 L320.768998,282.943147 Z M82.0432976,280.723989 C80.3002477,278.891148 78.5787908,276.996593 76.9267703,275.0934 L77.8814508,274.265225 C79.5208264,276.154226 81.2290064,278.033968 82.9590955,279.852616 L82.0432976,280.723989 Z M330.955751,271.636925 L329.979471,270.834666 C331.572254,268.896299 333.14038,266.896219 334.641799,264.888732 L335.653872,265.645321 C334.141318,267.668234 332.560876,269.684359 330.955751,271.636925 Z M72.0728095,269.237585 C70.5074897,267.259723 68.9662463,265.217676 67.4916336,263.168229 L68.5172544,262.430136 C69.9807516,264.463538 71.5102789,266.490154 73.0638702,268.453829 L72.0728095,269.237585 Z M340.073672,259.444518 L339.028278,258.73483 C340.437777,256.659461 341.818245,254.523617 343.130875,252.385301 L344.208365,253.046855 C342.88465,255.201215 341.493673,257.353724 340.073672,259.444518 Z M63.1933849,256.898286 C61.8162915,254.787125 60.4685069,252.614869 59.1870559,250.440148 L60.2756548,249.798342 C61.547532,251.95638 62.8851363,254.112616 64.2517523,256.207114 L63.1933849,256.898286 Z M348.045589,246.46467 L346.939714,245.853721 C348.152967,243.658014 349.33166,241.403044 350.444329,239.151203 L351.577378,239.711547 C350.456689,241.980072 349.268119,244.252299 348.045608,246.46467 L348.045589,246.46467 Z M354.795009,232.801675 L353.637315,232.2944 C354.644452,229.9944 355.611461,227.638865 356.511852,225.293814 L357.691784,225.746775 C356.784618,228.110341 355.809571,230.483778 354.795028,232.801675 L354.795009,232.801675 Z M49.0030643,230.074629 C48.0341907,227.749326 47.1063482,225.370335 46.2454713,223.003072 L47.4334221,222.571085 C48.2875121,224.920458 49.208258,227.280934 50.1694157,229.588341 L49.0030643,230.074629 Z M360.260209,218.563524 L359.06053,218.166097 C359.849209,215.789576 360.593451,213.360599 361.272281,210.945815 L362.489238,211.287688 C361.804877,213.720994 361.054462,216.1691 360.260228,218.563524 L360.260209,218.563524 Z M43.8109583,215.793892 C43.0590007,213.385282 42.3523966,210.924835 41.7109064,208.479813 L42.9334174,208.158907 C43.5699722,210.585419 44.2713313,213.027351 45.0174246,215.417452 L43.8109583,215.793892 Z M364.379489,203.916836 L363.14834,203.630497 C363.714238,201.194733 364.231384,198.707138 364.686202,196.238039 L365.929074,196.466368 C365.471172,198.955208 364.94971,201.461299 364.379489,203.916836 Z M39.9509082,201.076859 C39.4238794,198.608386 38.9468551,196.093631 38.5333902,193.601088 L39.7799651,193.393739 C40.1906621,195.867741 40.6639896,198.363393 41.1869993,200.812731 L39.9509082,201.076859 Z M367.133689,188.954191 L365.88094,188.782629 C366.220975,186.307363 366.507934,183.783356 366.734417,181.280323 L367.993333,181.393874 C367.765005,183.916655 367.475575,186.459797 367.133689,188.954191 Z M37.4601915,186.068544 C37.1621295,183.566737 36.9174402,181.018666 36.7326136,178.495273 L37.9933816,178.402701 C38.176363,180.907586 38.419504,183.435921 38.7154111,185.9192 L37.4601915,186.068544 Z M368.508008,173.803319 L367.245382,173.746547 C367.357695,171.242282 367.415093,168.702224 367.415093,166.197339 L368.678951,166.197339 C368.678951,168.721352 368.621559,171.280539 368.508008,173.803319 Z M36.349671,170.89546 C36.3064723,169.345875 36.2845823,167.76482 36.28426,166.197339 C36.28426,165.224763 36.2925909,164.254035 36.3092528,163.285157 L37.5731109,163.307376 C37.556449,164.268843 37.5481181,165.232165 37.5481181,166.197339 C37.5484214,167.753092 37.5703304,169.322424 37.6129098,170.8609 L36.349671,170.89546 Z M37.8730307,155.762181 L36.6116371,155.68319 C36.7693098,153.157938 36.9871547,150.607391 37.2583786,148.102196 L38.5148305,148.238276 C38.2454581,150.724645 38.0297933,153.255755 37.8730497,155.762181 L37.8730307,155.762181 Z M366.599014,148.051642 C366.346615,145.560022 365.999408,144.345182 365.632838,141.864368 L366.883123,141.679845 C367.252169,144.179478 367.568766,146.087613 367.82361,148.598046 L366.599014,148.051642 Z M39.4988262,140.752015 L38.2497805,140.558853 C38.6370203,138.0586 39.0868969,135.5386 39.5870751,133.067966 L40.825656,133.318513 C40.3294843,135.770328 39.8830011,138.2712 39.4988451,140.752015 L39.4988262,140.752015 Z M364.357258,134.422847 C363.875286,131.957458 363.331605,129.475721 362.740404,127.046744 L363.96847,126.748056 C364.563993,129.195518 365.11199,131.696421 365.597665,134.180319 L364.357258,134.422847 Z M42.4924826,125.954132 L41.2665782,125.646813 C41.8803013,123.19901 42.5600611,120.730847 43.2870259,118.310508 L44.4971701,118.673994 C43.7761011,121.075817 43.10158,123.525155 42.4924826,125.954132 Z M360.785393,119.752716 C360.080646,117.34626 359.31047,114.925618 358.496501,112.557116 L359.691245,112.146116 C360.512014,114.532817 361.288345,116.972594 361.998652,119.397255 L360.785393,119.752716 Z M46.8431687,111.474382 L45.6508956,111.055356 C46.4907925,108.666184 47.3976486,106.265593 48.3461614,103.920245 L49.5180675,104.394192 C48.5766512,106.72134 47.6765884,109.103725 46.8431687,111.474382 L46.8431687,111.474382 Z M355.877453,105.474437 C354.955468,103.148521 353.968092,100.81427 352.942439,98.536178 L354.095217,98.017181 C355.128888,100.312859 356.123709,102.665019 357.052449,105.008515 L355.877453,105.474437 Z M52.5157177,97.4472822 L51.3672625,96.9196214 C52.4228431,94.6208594 53.5463055,92.3156139 54.7064894,90.0680697 L55.8296421,90.6475487 C54.6781031,92.8781445 53.5632792,95.1657782 52.5157177,97.4472822 Z M349.69208,91.7373988 C348.560927,89.506209 347.362455,87.2703871 346.130073,85.092886 L347.229775,84.4702147 C348.472034,86.6646895 349.679132,88.9174786 350.818936,91.1659453 L349.69208,91.7373988 Z M59.4524345,84.0092288 L58.3570487,83.378532 C59.6178229,81.1893086 60.947408,78.9979177 62.3090761,76.8657765 L63.3742241,77.5458396 C62.0230523,79.6619361 60.7033317,81.8366631 59.4524345,84.0092288 Z M342.266914,78.6156133 C340.931471,76.4896397 339.533075,74.3716916 338.110622,72.320393 L339.148616,71.6002151 C340.582179,73.667255 341.991665,75.8012478 343.336998,77.9435694 L342.266914,78.6156133 Z M67.5872887,71.2703671 L66.55423,70.5421636 C68.0112499,68.4757557 69.5346033,66.4161156 71.0829559,64.420351 L72.0814543,65.1948369 C70.5451337,67.1757828 69.0328896,69.2196815 67.5872887,71.2703671 Z M333.669861,66.2198701 C332.146817,64.2250344 330.56082,62.2419273 328.954463,60.3257731 L329.923337,59.5139528 C331.541423,61.4449194 333.139761,63.4428389 334.674533,65.4527904 L333.669861,66.2198701 Z M76.8471472,59.3325196 L75.8850605,58.5129898 C77.5201137,56.5925195 79.2242874,54.6809721 80.9500603,52.8314927 L81.8738837,53.6936019 C80.1613813,55.5292231 78.4701685,57.4265521 76.8471472,59.3325196 Z M323.975526,54.6510629 C322.277836,52.8031001 320.51658,50.971498 318.74175,49.2077714 L319.632865,48.3110957 C321.421275,50.0887121 323.195491,51.9338943 324.906142,53.7957343 L323.975526,54.6510629 Z M87.1505544,48.2913479 L86.2668396,47.3878726 C88.0740682,45.6198299 89.9442496,43.8718194 91.8249146,42.1926639 L92.6666441,43.1356157 C90.8001911,44.8018547 88.9442092,46.5365757 87.1505544,48.2913479 L87.1505544,48.2913479 Z M313.266035,44.007008 C311.405421,42.3194983 309.484331,40.6551299 307.556455,39.0601853 L308.362411,38.0863826 C310.304486,39.6933782 312.240382,41.3703788 314.115189,43.070843 L313.266035,44.007008 Z M98.4104684,38.236333 L97.6125316,37.2563501 C99.5672524,35.6645208 101.587365,34.0945437 103.617121,32.5900154 L104.370008,33.6051715 C102.355418,35.0985968 100.350402,36.6565104 98.4104937,38.236333 L98.4104684,38.236333 Z M110.532214,29.2520208 L109.826842,28.2035368 C111.918874,26.7958896 114.072615,25.4175575 116.228523,24.1058687 L116.885135,25.1858355 C114.745916,26.4873313 112.60853,27.8554829 110.532239,29.2520208 L110.532214,29.2520208 Z M123.415812,21.4152349 L122.80916,20.3062753 C125.022454,19.0951769 127.291907,17.920187 129.554264,16.8133823 L130.109666,17.9488829 C127.864618,19.0470429 125.612448,20.213091 123.415812,21.4152349 Z M275.944602,18.4870084 C273.695819,17.3666298 271.392122,16.2842049 269.097651,15.2699714 L269.608622,14.11411 C271.920965,15.1360593 274.242558,16.2268131 276.508624,17.3558302 L275.944602,18.4870084 Z M136.952921,14.7938824 L136.450581,13.6342926 C138.763543,12.6317877 141.129573,11.670314 143.482643,10.7764187 L143.931313,11.9582019 C141.596114,12.8450132 139.248289,13.7990744 136.952921,14.7938824 Z M262.107587,12.3707504 C259.767478,11.4633003 257.372441,10.5974627 254.988514,9.79767439 L255.390876,8.59923359 C257.792699,9.40549922 260.206245,10.2777951 262.564257,11.1926704 L262.107587,12.3707504 Z M151.050379,9.44067239 L150.656687,8.23976075 C153.058511,7.45232029 155.509087,6.71085266 157.939916,6.03664756 L158.27779,7.25422317 C155.865432,7.92348659 153.433674,8.65911519 151.050367,9.44067239 L151.050379,9.44067239 Z M247.775638,7.56154922 C245.36517,6.87438958 242.906574,6.23443503 240.468339,5.65958814 L240.758395,4.42967727 C243.215765,5.00884024 245.692876,5.65372384 248.122466,6.34582517 L247.775638,7.56154922 Z M165.598618,5.40317661 L165.317214,4.17110455 C167.779513,3.60859922 170.287791,3.09607949 172.771999,2.64805443 L172.99663,3.89154545 C170.530957,4.3364867 168.042098,4.84499368 165.598618,5.40317661 Z M233.080804,4.09704878 C230.619738,3.63510865 228.113002,3.22413359 225.629729,2.87546042 L225.804994,1.6239439 C228.307433,1.97539756 230.833886,2.38948171 233.314087,2.85479002 L233.080804,4.09704878 Z M180.456667,2.72180055 L180.289426,1.46905177 C182.791234,1.13519102 185.335601,0.854399667 187.851595,0.635322506 L187.961443,1.89424523 C185.464578,2.11208381 182.939952,2.39037905 180.456667,2.72180055 Z M218.129881,1.99668725 C215.640428,1.76217838 213.106538,1.58136452 210.597957,1.46010366 L210.659665,0.197477827 C213.186749,0.319977273 215.73978,0.502023392 218.248368,0.738409091 L218.129881,1.99668725 Z M195.49769,1.40949878 L195.444608,0.146904545 C197.76744,0.050017184 200.13471,0.000650886918 202.481612,3.15964523e-05 L203.053678,0.00095421286 L203.049975,1.26481231 L202.481612,1.26388969 C200.152631,1.26447738 197.802626,1.31353404 195.49769,1.40949878 L195.49769,1.40949878 Z" id="Shape" fill="#3F3D56"></path>
                    <rect id="Rectangle" fill="#3F3D56" x="106.796009" y="412.202483" width="463.203681" height="1.26385809"></rect>
                    <path d="M377.900237,199.705478 L384.219527,297.65448 C384.219527,297.65448 399.385824,336.202152 398.753895,372.854037 C398.753895,372.854037 393.066534,387.388405 397.490037,389.916121 C401.91354,392.443837 404.441257,394.339624 401.91354,396.235412 C399.385824,398.131199 397.490037,402.554702 399.385824,403.81856 C401.281611,405.082418 401.91354,406.978205 401.281611,406.978205 L382.32374,406.978205 C382.32374,406.978205 386.115314,397.49927 380.427953,394.971553 C374.740591,392.443837 377.900237,386.124547 377.900237,386.124547 L335.560991,262.266454 L302.068751,376.013682 C302.068751,376.013682 307.756113,379.805256 303.332609,381.701043 C298.909106,383.596831 297.013319,379.805256 298.909106,383.596831 C300.804893,387.388405 298.277177,389.284192 298.277177,389.916121 C298.277177,390.54805 279.319305,388.020334 279.319305,388.020334 C279.319305,388.020334 288.798241,379.805256 284.374738,377.909469 C279.951234,376.013682 278.055447,374.117895 279.319305,372.854037 C280.583164,371.590179 285.638596,359.583527 285.638596,359.583527 C285.638596,359.583527 288.166312,314.084635 288.798241,312.188848 C289.43017,310.293061 288.798241,301.446055 288.798241,297.022551 C288.798241,292.599048 288.166312,274.905035 290.062099,270.481531 C291.957886,266.058028 293.853674,211.71213 303.964538,205.392839 C314.075403,199.073549 377.900237,199.705478 377.900237,199.705478 Z" id="Path" fill="#2F2E41"></path>
                    <path d="M297.645248,386.756476 C297.645248,386.756476 310.283829,412.665567 301.436822,415.825212 C292.589815,418.984857 281.215093,416.457141 278.687376,420.248715 C276.15966,424.04029 248.354782,428.463793 247.722853,418.984857 C247.090924,409.505922 278.055447,391.811908 278.055447,391.811908 L282.089013,385.316941 L297.645248,386.756476 Z" id="Path" fill="#2F2E41"></path>
                    <path d="M400.017753,405.714347 C400.017753,405.714347 412.656334,431.623438 403.809328,434.783083 C394.962321,437.942729 383.587598,435.415012 381.059882,439.206587 C378.532166,442.998161 350.727288,447.421664 350.095359,437.942729 C349.46343,428.463793 380.427953,410.76978 380.427953,410.76978 L384.461518,404.274813 L400.017753,405.714347 Z" id="Path" fill="#2F2E41"></path>
                    <circle id="Oval" fill="#A0616A" cx="341.56431" cy="59.7331942" r="20.8536585"></circle>
                    <polygon id="Path" fill="#A0616A" points="355.783004 70.7918514 353.255288 89.1177938 334.297417 103.652162 329.241984 96.7009424 329.241984 72.6876386"></polygon>
                    <path d="M326.082055,94.1733273 C326.082055,94.1733273 345.671855,96.0691144 355.78272,89.1178949 L376.00445,208.552485 C376.00445,208.552485 304.596467,214.239846 301.436822,210.448272 L301.436822,173.164458 L314.075403,112.49927 L326.082055,94.1733273 Z" id="Path" fill="#3F3D56"></path>
                    <path d="M354.042621,83.4076576 L360.838152,89.1178949 C360.838152,89.1178949 388.64303,93.5413982 386.747243,101.124547 L379.164095,190.858471 L381.691811,221.191066 C381.691811,221.191066 360.206223,215.503704 343.776068,221.191066 C327.345913,226.878427 340.399368,98.9738837 340.399368,98.9738837 C340.399368,98.9738837 355.462168,85.2805626 354.042621,83.4076576 Z" id="Path" fill="#D0CDE1"></path>
                    <path d="M329.2417,90.3245318 C329.2417,90.3245318 309.019971,104.916121 306.492254,114.395057 C303.964538,123.873992 295.749461,223.718782 295.749461,223.718782 C295.749461,223.718782 299.541035,221.822995 301.436822,224.98264 C303.332609,228.142285 332.401345,95.322743 329.2417,90.3245318 Z" id="Path" fill="#D0CDE1"></path>
                    <path d="M320.720668,58.8246193 C320.720668,58.8246193 318.463133,55.4383137 319.331416,51.7915271 C319.850229,49.7210502 320.055113,47.5843907 319.939212,45.4530512 C319.939212,45.4530512 321.762605,39.5487233 323.586005,36.2492511 C325.409404,32.9497789 324.541115,31.5605145 330.271814,30.5185773 C336.002513,29.47664 333.65812,22.0093999 348.766254,30.084442 C349.808582,31.5397638 351.624237,32.2249062 353.368157,31.820983 C356.493975,31.2131874 357.622746,35.5546031 357.622746,35.5546031 C357.622746,35.5546031 359.706627,34.3390054 360.488083,36.0755717 C361.269539,37.812138 366.841497,35.0333185 366.841497,46.7551726 C366.841497,58.4770267 360.500797,68.9476171 360.500797,68.9476171 C360.500797,68.9476171 360.965631,49.2300911 350.633054,47.2330437 C340.300477,45.2359962 329.186451,39.418489 326.494774,46.8857292 C325.041802,51.0767345 323.103953,55.0835493 320.720668,58.8246193 Z" id="Path" fill="#2F2E41"></path>
                    <ellipse id="Oval" fill="#A0616A" cx="360.72723" cy="60.7952837" rx="2.0380786" ry="2.71744024"></ellipse>
                    <path d="M275.079194,256.215423 C270.078847,253.208427 264.049593,253.438095 261.75753,253.667757 C262.630407,255.798824 265.249418,261.234476 270.249765,264.242989 C275.262315,267.257619 281.283562,267.021088 283.572194,266.792949 C282.699715,264.662615 280.080325,259.22467 275.079194,256.215423 Z" id="Path" fill="#D0CDE1"></path>
                    <path d="M298.576307,315.884597 L267.323662,315.884597 C263.440081,315.884597 260.291818,319.032861 260.291818,322.916441 C260.291818,326.800021 263.440081,329.948285 267.323662,329.948285 L298.576307,329.948285 C302.457284,329.944606 305.601488,326.79742 305.601488,322.916441 C305.601488,319.035462 302.457284,315.888276 298.576307,315.884597 L298.576307,315.884597 Z" id="Path" fill="#D0CDE1"></path>
                    <path d="M440.099104,241.65957 L264.875133,241.65957 C260.758504,241.65957 256.810476,243.294868 253.899577,246.205761 C250.988677,249.116654 249.353363,253.064679 249.353363,257.181308 L249.353363,342.553924 C249.353363,351.126347 256.302685,358.075668 264.875107,358.075668 L440.099104,358.075668 C444.215726,358.075668 448.163742,356.440346 451.074633,353.529454 C453.985524,350.618562 455.620843,346.670546 455.620843,342.553924 L455.620843,257.181308 C455.620843,253.064684 453.985532,249.116665 451.07464,246.205772 C448.163748,243.29488 444.215728,241.65957 440.099104,241.65957 L440.099104,241.65957 Z M260.539771,252.247775 C260.885796,252.185214 269.090757,250.78891 275.884904,254.877086 C282.678691,258.964498 285.288931,266.868458 285.39651,267.202654 L285.671191,268.05493 L284.789542,268.211345 C283.531769,268.407686 282.260074,268.501081 280.987112,268.490601 C277.901522,268.490601 273.430321,267.980154 269.444005,265.581269 C262.650218,261.494622 260.040364,253.590662 259.932778,253.256466 L259.658097,252.40419 L260.539771,252.247775 Z M298.576288,331.510919 L267.323662,331.510919 C262.577064,331.510919 258.729187,327.663042 258.729187,322.916444 C258.729187,318.169847 262.577064,314.321969 267.323662,314.321969 L298.576307,314.321969 C303.322904,314.321969 307.170781,318.169847 307.170781,322.916444 C307.170781,327.663042 303.322904,331.510919 298.576307,331.510919 L298.576288,331.510919 Z M440.775869,329.948285 C440.760669,335.120106 436.571846,339.308932 431.400026,339.324084 L407.960564,339.324084 C402.788738,339.308932 398.599911,335.120099 398.584766,329.948273 L398.584766,315.884597 C398.599904,310.712771 402.788738,306.52394 407.960564,306.508805 L431.400076,306.508805 C436.571901,306.52394 440.760734,310.712772 440.775869,315.884597 L440.775869,329.948285 Z" id="Shape" fill="#D0CDE1"></path>
                    <path d="M415.383064,327.213682 L405.225955,327.213682 C403.715673,327.213682 402.491348,328.438007 402.491348,329.948288 C402.491348,331.45857 403.715673,332.682895 405.225955,332.682895 L415.383064,332.682895 C416.893345,332.682895 418.11767,331.45857 418.11767,329.948288 C418.11767,328.438007 416.893345,327.213682 415.383064,327.213682 L415.383064,327.213682 Z M415.383064,331.12027 L405.225955,331.12027 C404.806601,331.121241 404.418685,330.898077 404.208726,330.535068 C403.998768,330.172058 403.998768,329.724531 404.208726,329.361522 C404.418685,328.998512 404.806601,328.775349 405.225955,328.776319 L415.383064,328.776319 C415.802418,328.775349 416.190334,328.998512 416.400292,329.361522 C416.61025,329.724531 416.61025,330.172058 416.400292,330.535068 C416.190334,330.898077 415.802418,331.121241 415.383064,331.12027 L415.383064,331.12027 Z" id="Shape" fill="#D0CDE1"></path>
                    <path d="M434.134655,327.213679 L423.977545,327.213679 C422.999574,327.212195 422.095255,327.733083 421.60584,328.579784 C421.116425,329.426485 421.116425,330.470092 421.60584,331.316793 C422.095255,332.163494 422.999574,332.684382 423.977545,332.682898 L434.134655,332.682898 C435.644936,332.682898 436.869261,331.45857 436.869261,329.948288 C436.869261,328.438007 435.644936,327.213679 434.134655,327.213679 L434.134655,327.213679 Z M434.134655,331.12027 L423.977545,331.12027 C423.558192,331.121241 423.170276,330.898077 422.960317,330.535068 C422.750359,330.172058 422.750359,329.724531 422.960317,329.361522 C423.170276,328.998512 423.558192,328.775349 423.977545,328.776319 L434.134655,328.776319 C434.780855,328.777823 435.303909,329.302093 435.303909,329.948295 C435.303909,330.594496 434.780855,331.118767 434.134655,331.12027 L434.134655,331.12027 Z" id="Shape" fill="#D0CDE1"></path>
                    <path d="M415.383064,320.181806 L405.225955,320.181806 C403.715673,320.181806 402.491348,321.406134 402.491348,322.916416 C402.491348,324.426697 403.715673,325.651026 405.225955,325.651026 L415.383064,325.651026 C416.361035,325.652509 417.265354,325.131621 417.754769,324.284921 C418.244184,323.43822 418.244184,322.394612 417.754769,321.547911 C417.265354,320.70121 416.361035,320.180323 415.383064,320.181806 L415.383064,320.181806 Z M415.383064,324.088395 L405.225955,324.088395 C404.57869,324.088395 404.053979,323.563683 404.053979,322.916419 C404.053979,322.269155 404.57869,321.744443 405.225955,321.744443 L415.383064,321.744443 C416.030328,321.744443 416.555039,322.269155 416.555039,322.916419 C416.555039,323.563683 416.030328,324.088395 415.383064,324.088395 L415.383064,324.088395 Z" id="Shape" fill="#D0CDE1"></path>
                    <path d="M434.134655,320.181806 L423.977545,320.181806 C422.999574,320.180323 422.095255,320.70121 421.60584,321.547911 C421.116425,322.394612 421.116425,323.43822 421.60584,324.284921 C422.095255,325.131621 422.999574,325.652509 423.977545,325.651026 L434.134655,325.651026 C435.644936,325.651026 436.869261,324.426697 436.869261,322.916416 C436.869261,321.406134 435.644936,320.181806 434.134655,320.181806 Z M434.134655,324.088395 L423.977545,324.088395 C423.330281,324.088395 422.80557,323.563683 422.80557,322.916419 C422.80557,322.269155 423.330281,321.744443 423.977545,321.744443 L434.134655,321.744443 C434.781919,321.744443 435.30663,322.269155 435.30663,322.916419 C435.30663,323.563683 434.781919,324.088395 434.134655,324.088395 Z" id="Shape" fill="#D0CDE1"></path>
                    <path d="M415.383064,313.149993 L405.225955,313.149993 C403.715673,313.149993 402.491348,314.374319 402.491348,315.8846 C402.491348,317.394882 403.715673,318.619207 405.225955,318.619207 L415.383064,318.619207 C416.893345,318.619207 418.11767,317.394882 418.11767,315.8846 C418.11767,314.374319 416.893345,313.149993 415.383064,313.149993 L415.383064,313.149993 Z M415.383064,317.056579 L405.225955,317.056579 C404.57869,317.056579 404.053979,316.531867 404.053979,315.884603 C404.053979,315.237339 404.57869,314.712628 405.225955,314.712628 L415.383064,314.712628 C416.030328,314.712628 416.555039,315.237339 416.555039,315.884603 C416.555039,316.531867 416.030328,317.056579 415.383064,317.056579 L415.383064,317.056579 Z" id="Shape" fill="#D0CDE1"></path>
                    <path d="M434.134655,313.14999 L423.977545,313.14999 C422.999574,313.148507 422.095255,313.669394 421.60584,314.516095 C421.116425,315.362796 421.116425,316.406404 421.60584,317.253105 C422.095255,318.099806 422.999574,318.620693 423.977545,318.61921 L434.134655,318.61921 C435.643313,318.616913 436.865107,317.39326 436.865107,315.8846 C436.865107,314.37594 435.643313,313.152287 434.134655,313.14999 L434.134655,313.14999 Z M434.134655,317.056579 L423.977545,317.056579 C423.330281,317.056579 422.80557,316.531867 422.80557,315.884603 C422.80557,315.237339 423.330281,314.712628 423.977545,314.712628 L434.134655,314.712628 C434.781919,314.712628 435.30663,315.237339 435.30663,315.884603 C435.30663,316.531867 434.781919,317.056579 434.134655,317.056579 Z" id="Shape" fill="#D0CDE1"></path>
                    <path d="M384.851456,222.454924 L380.321599,237.236679 C380.321599,237.236679 379.164095,264.79417 363.997798,261.002596 C348.831501,257.211021 368.421301,224.98264 368.421301,224.98264 L372.844804,218.03142 L384.851456,222.454924 Z" id="Path" fill="#A0616A"></path>
                    <path d="M298.909106,222.454924 L294.379249,237.236679 C294.379249,237.236679 293.221744,264.79417 278.055447,261.002596 C262.88915,257.211021 282.478951,224.98264 282.478951,224.98264 L286.902454,218.03142 L298.909106,222.454924 Z" id="Path" fill="#A0616A"></path>
                    <path d="M381.691811,96.7010435 C381.691811,96.7010435 391.802676,94.1733273 394.962321,111.235412 C398.121966,128.297496 401.91354,176.956032 401.91354,176.956032 L386.747243,228.142285 C386.747243,228.142285 371.580946,219.927208 368.421301,221.191066 L380.356077,176.753278 L370.317088,131.457141 C370.317088,131.457141 379.164095,96.7010435 381.691811,96.7010435 Z" id="Path" fill="#D0CDE1"></path>
                    <polygon id="Path" fill="#000000" opacity="0.15" points="366.990898 132.321519 380.261408 176.556552 366.990898 221.423514 374.574047 176.556552"></polygon>
                    <path d="M306.492254,131.457141 L283.742809,221.191066 C283.742809,221.191066 295.742794,225.151485 300.166297,228.31113 L306.492254,131.457141 Z" id="Path" fill="#D0CDE1"></path>
                    <circle id="Oval" fill="#3F3D56" cx="67.8452927" cy="293.773943" r="63.1929047"></circle>
                    <circle id="Oval" fill="#000000" opacity="0.1" cx="67.8452927" cy="293.773943" r="54.345898"></circle>
                    <path d="M65.2411763,325.843021 L65.2411763,317.933121 C61.2427463,317.855116 57.1063157,316.444928 54.6935917,314.487117 L56.3479819,309.240109 C59.2152228,311.388815 62.6924179,312.568249 66.2752207,312.607343 C71.1700041,312.607343 74.4790816,309.396512 74.4790816,304.932609 C74.4790816,300.625103 71.7903499,297.962596 66.6888941,295.612875 C59.6570594,292.480403 55.3139564,288.877649 55.3139564,282.064412 C55.3139564,275.563966 59.3813867,270.630129 65.7238753,269.455455 L65.7238753,261.545562 L69.9979716,261.545562 L69.9979716,269.14229 C73.1851244,269.185801 76.2939,270.136549 78.9601916,271.883181 L77.2364787,277.052184 C74.6793185,275.30173 71.6491253,274.372779 68.5502727,274.389298 C63.2421509,274.389298 61.2427653,277.991692 61.2427653,281.124525 C61.2427653,285.196865 63.79349,287.233035 69.7913055,290.052702 C76.8918057,293.341893 80.4768908,297.414265 80.4768908,304.384278 C80.4768908,310.571173 76.6851333,316.366917 69.5842982,317.697576 L69.5842982,325.843021 L65.2411763,325.843021 Z" id="Path" fill="#4339F2"></path>
                    <path d="M134.600887,422.313348 C89.9806558,428.967693 44.6202311,428.967693 5.38815112e-14,422.313348 L5.38815112e-14,407.14705 C44.6675683,413.129092 89.9333186,413.129092 134.600887,407.14705 L134.600887,422.313348 Z" id="Path" fill="#3F3D56"></path>
                    <path d="M134.600887,398.931973 C89.9806558,405.586318 44.6202311,405.586318 5.38815112e-14,398.931973 L5.38815112e-14,383.765676 C44.6675683,389.747717 89.9333186,389.747717 134.600887,383.765676 L134.600887,398.931973 Z" id="Path" fill="#3F3D56"></path>
                    <path d="M134.600887,375.550598 C89.9806558,382.204944 44.6202311,382.204944 5.38815112e-14,375.550598 L5.38815112e-14,360.384301 C44.6675683,366.366342 89.9333186,366.366342 134.600887,360.384301 L134.600887,375.550598 Z" id="Path" fill="#3F3D56"></path>
                </g>
            </g>
        </g>
    </g>
</svg>