<?xml version="1.0" encoding="UTF-8"?>
<svg width="570px" height="440px" viewBox="0 0 570 440" version="1.1" xmlns="http://www.w3.org/2000/svg" xmlns:xlink="http://www.w3.org/1999/xlink">
    <title>undraw_investment_xv-9-d (1)</title>
    <g id="Landing" stroke="none" stroke-width="1" fill="none" fill-rule="evenodd">
        <g id="Website" transform="translate(-746.000000, -1778.000000)" fill-rule="nonzero">
            <g id="undraw_investment_xv-9-d-(1)" transform="translate(746.000000, 1778.000000)">
                <path d="M6.10094158,178.442551 C21.7919406,76.5740224 76.0093048,3.03918468 139.648758,0.0897682207 C173.293043,-1.46949905 208.696188,16.9530148 234.47232,81.4201179 C280.549905,196.662035 231.64076,276.297749 197.542568,314.139024 C181.05454,332.437027 166.243884,354.499503 153.441738,379.581375 C130.409519,424.705926 86.1008049,480.7795 33.3311324,392.920828 C-4.91639914,329.240748 -4.35081922,246.29706 6.10094158,178.442551 Z" id="Path" fill="#F2F2F2"></path>
                <rect id="Rectangle" fill="#3F3D56" x="111.369686" y="268.740623" width="458.630363" height="166.731806"></rect>
                <polygon id="Path" fill="#000000" opacity="0.1" points="235.088392 268.740628 111.369648 353.67117 111.369648 304.486299 163.439772 268.740628"></polygon>
                <polygon id="Path" fill="#000000" opacity="0.1" points="357.353663 268.740628 241.634443 348.182683 237.490961 351.029971 114.482683 435.472407 111.369648 435.472407 111.369648 388.418934 190.632731 334.011323 193.284776 332.189058 285.710466 268.740628"></polygon>
                <path d="M124.850246,352.632659 L123.615792,351.08561 C123.738512,350.988016 136.109362,341.231737 155.869044,335.651339 C167.315499,332.389517 179.244339,331.155305 191.116141,332.004516 C205.839696,333.075639 220.479422,337.421121 234.628514,344.920596 L233.701828,346.669607 C202.223792,329.98446 174.29402,332.504093 156.406791,337.55592 C137.027349,343.029059 124.969821,352.536995 124.850246,352.632659 Z" id="Path" fill="#F2F2F2"></path>
                <path d="M244.456535,351.859134 C238.549724,350.838569 230.733196,350.411524 225.102654,351.498342 L232.774718,345.071063 L234.558981,335.224707 C236.402717,340.654675 240.644108,347.23426 244.456535,351.859134 Z" id="Path" fill="#F2F2F2"></path>
                <path d="M327.304429,371.978524 C317.84923,371.967749 308.440801,370.651454 299.345685,368.06693 C279.586003,362.486532 267.215154,352.730258 267.092433,352.632659 L268.326643,351.08561 C268.446706,351.181274 280.564142,360.723003 299.96436,366.185057 C317.834679,371.217077 345.735707,373.715933 377.178231,357.048662 L378.104912,358.797672 C363.955825,366.297158 349.316338,370.642608 334.592788,371.713758 C332.166388,371.890587 329.736935,371.978842 327.304429,371.978524 Z" id="Path" fill="#F2F2F2"></path>
                <path d="M387.93316,351.859134 C384.121704,356.485674 379.880329,363.065258 378.036593,368.495276 L376.251349,358.647232 L368.580261,352.221619 C374.210787,353.30841 382.027331,352.881392 387.93316,351.859134 Z" id="Path" fill="#F2F2F2"></path>
                <path d="M417.245955,352.632659 L416.011018,351.08561 C416.133739,350.988016 428.504832,341.231737 448.264753,335.651339 C459.711413,332.390148 471.640223,331.155948 483.512094,332.004516 C498.23565,333.075639 512.875137,337.421121 527.024224,344.920596 L526.097537,346.669607 C494.620228,329.984942 466.689729,332.50361 448.8025,337.55592 C429.42282,343.029059 417.365308,352.536995 417.245955,352.632659 Z" id="Path" fill="#F2F2F2"></path>
                <path d="M536.852005,351.859134 C530.945178,350.838569 523.128618,350.411524 517.498108,351.498342 L525.170189,345.071063 L526.954489,335.224707 C528.798171,340.654675 533.039578,347.23426 536.852005,351.859134 Z" id="Path" fill="#F2F2F2"></path>
                <rect id="Rectangle" fill="#6C63FF" x="381.0067" y="314.25836" width="32.1585539" height="1"></rect>
                <rect id="Rectangle" fill="#6C63FF" x="381.0067" y="324.1533" width="32.1585539" height="1"></rect>
                <rect id="Rectangle" fill="#6C63FF" x="381.0067" y="334.04824" width="32.1585539" height="1"></rect>
                <rect id="Rectangle" fill="#6C63FF" x="236.54058" y="372.638509" width="32.1585539" height="1"></rect>
                <rect id="Rectangle" fill="#6C63FF" x="236.54058" y="382.533448" width="32.1585539" height="1"></rect>
                <rect id="Rectangle" fill="#6C63FF" x="236.54058" y="392.428388" width="32.1585539" height="1"></rect>
                <rect id="Rectangle" fill="#6C63FF" x="529.925545" y="372.638509" width="32.1585539" height="1"></rect>
                <rect id="Rectangle" fill="#6C63FF" x="529.925545" y="382.533448" width="32.1585539" height="1"></rect>
                <rect id="Rectangle" fill="#6C63FF" x="529.925545" y="392.428388" width="32.1585539" height="1"></rect>
                <circle id="Oval" fill="#6C63FF" cx="253.361979" cy="357.796099" r="6.43170971"></circle>
                <circle id="Oval" fill="#6C63FF" cx="397.333355" cy="348.890649" r="6.43170971"></circle>
                <circle id="Oval" fill="#6C63FF" cx="545.75745" cy="357.796099" r="6.43170971"></circle>
                <path d="M188.778631,223.969205 L179.198786,213.698434 L189.46954,204.118594 L199.04938,214.389376 L188.778631,223.969205 Z M180.725757,213.751584 L188.831775,222.442218 L197.522415,214.336227 L189.416391,205.645592 L180.725757,213.751584 Z" id="Shape" fill="#3F3D56"></path>
                <path d="M419.273398,103.569586 L409.693553,93.2988148 L419.964307,83.7189751 L429.544147,93.9897568 L419.273398,103.569586 Z M411.220523,93.3519642 L419.326542,102.042599 L428.017181,93.9366074 L419.911158,85.2459731 L411.220523,93.3519642 Z" id="Shape" fill="#3F3D56"></path>
                <path d="M536.917276,269.573815 L522.872281,269.573815 L522.872281,255.52882 L536.917276,255.52882 L536.917276,269.573815 Z M523.952667,268.493429 L535.836906,268.493429 L535.836906,256.609211 L523.952667,256.609211 L523.952667,268.493429 Z" id="Shape" fill="#3F3D56"></path>
                <circle id="Oval" fill="#6C63FF" cx="328.902425" cy="317.726634" r="7.17050238"></circle>
                <path d="M328.902425,338.441421 C320.524074,338.441421 312.970708,333.394432 309.764449,325.653846 C306.55819,317.91326 308.330458,309.003459 314.254846,303.07907 C320.179234,297.15468 329.089035,295.38241 336.829621,298.588667 C344.570208,301.794923 349.617201,309.348289 349.617201,317.726639 C349.604394,329.161786 340.337572,338.428611 328.902425,338.441421 L328.902425,338.441421 Z M328.902425,298.605298 C318.342,298.605298 309.781084,307.166214 309.781084,317.726639 C309.781084,328.287065 318.342,336.847981 328.902425,336.847981 C339.46285,336.847981 348.023767,328.287065 348.023767,317.726639 C348.011695,307.171218 339.457846,298.617369 328.902425,298.605298 Z" id="Shape" fill="#F2F2F2"></path>
                <rect id="Rectangle" fill="#F2F2F2" x="288.562928" y="145.024384" width="59.7403279" height="69.6003788"></rect>
                <path d="M327.992101,318.647257 L327.162027,317.837 C330.979731,313.50827 333.873508,308.445702 335.666096,302.959409 C338.488231,294.466382 339.866871,281.053241 330.406704,265.384966 C320.727616,249.353881 320.292052,236.332982 321.630754,228.232762 C323.087845,219.418864 326.804906,214.478358 326.96237,214.272469 L327.884197,214.976802 C327.847101,215.025227 324.162325,219.939392 322.764143,228.490477 C321.473297,236.38509 321.923591,249.090499 331.399616,264.785137 C341.101645,280.854148 339.664383,294.639725 336.75049,303.374609 C333.593037,312.838729 328.219515,318.414463 327.992101,318.647257 Z" id="Path" fill="#3F3D56"></path>
                <path d="M371.503384,215.204769 L287.982928,215.204769 L287.982928,131.684312 L371.503384,131.684312 L371.503384,215.204769 Z M289.142935,214.044762 L370.343377,214.044762 L370.343377,132.844319 L289.142935,132.844319 L289.142935,214.044762 Z" id="Shape" fill="#3F3D56"></path>
                <rect id="Rectangle" fill="#3F3D56" x="305.383021" y="156.044442" width="51.0402785" height="1.16000695"></rect>
                <rect id="Rectangle" fill="#3F3D56" x="305.383021" y="168.804513" width="51.0402785" height="1.16000695"></rect>
                <rect id="Rectangle" fill="#3F3D56" x="305.383021" y="181.564584" width="51.0402785" height="1.16000695"></rect>
                <polygon id="Path" fill="#FFB9B9" points="84.1034729 384.447374 82.0056993 404.730371 93.8954329 403.331675 95.2941294 386.54569"></polygon>
                <path d="M52.630085,230.576471 C52.630085,230.576471 -8.21890647,289.327244 30.248837,307.512006 L42.1388743,307.512006 C42.1388743,307.512006 68.0171997,264.84775 80.6066395,265.547169 L84.1037115,306.113163 L82.0054716,387.944598 L97.3925755,388.644011 C97.3925755,388.644011 106.484959,347.378587 105.785546,324.297926 L121.872063,238.969425 L52.630085,230.576471 Z" id="Path" fill="#2F2E41"></path>
                <path d="M33.7459036,304.714348 L42.1388743,307.512006 C42.1388743,307.512006 75.0113275,299.818449 77.1095729,300.517862 L83.6174814,300.472913 L83.4042982,283.731943 L55.4277382,283.731943 L33.7459036,304.714348 Z" id="Path" fill="#2F2E41"></path>
                <path d="M95.2943355,400.534059 C95.2943355,400.534059 82.7048849,394.938731 80.6066666,400.534059 C78.5084483,406.129388 79.20784,422.215894 79.20784,422.215894 C79.20784,422.215894 82.0054987,427.111793 80.6066666,432.707105 C79.2078345,438.302417 86.2019949,441.10007 95.2943355,438.302433 C104.386714,435.504796 104.386714,428.510635 104.386714,428.510635 L95.2943355,400.534059 Z" id="Path" fill="#2F2E41"></path>
                <path d="M105.785546,282.3331 C105.785546,282.3331 115.577338,276.737771 114.877925,285.130758 C114.178511,293.523745 110.681439,301.217281 110.681439,301.217281 C110.681439,301.217281 119.773823,324.997356 110.681439,327.095606 C101.589055,329.193857 94.5949222,324.297948 94.5949222,320.800881 C94.5949222,317.303814 105.785546,282.3331 105.785546,282.3331 Z" id="Path" fill="#2F2E41"></path>
                <polygon id="Path" fill="#FFB9B9" points="75.0111323 90.6934539 76.4103711 117.271399 88.3001047 127.762436 101.589077 108.878677 101.589077 89.9943768"></polygon>
                <path d="M84.1037115,117.271404 L76.0970229,111.321879 L70.8148476,119.369671 L47.034773,133.357948 L61.0230502,169.727474 L61.7224636,205.397586 C61.7224636,205.397586 35.8441382,231.975319 51.2312529,235.472385 C66.6183676,238.969452 121.17265,246.662982 123.970309,240.368262 C126.767967,234.073543 120.473237,169.028039 120.473237,169.028039 L122.571482,113.774343 L101.589061,106.18818 L84.1037115,117.271404 Z" id="Path" fill="#D0CDE1"></path>
                <path d="M41.439461,161.568539 C41.439461,161.568539 35.8441327,201.201364 46.3353597,201.201364 C52.5660583,201.222316 58.7417141,200.034689 64.5201223,197.704012 L56.1271516,176.022177 L59.6242236,161.334508 L41.439461,161.568539 Z" id="Path" fill="#FFB9B9"></path>
                <path d="M57.5259782,196.305185 L65.2195356,197.704012 C65.2195356,197.704012 87.6007835,183.715735 88.9996102,183.016343 C90.3984368,182.316951 66.6183622,170.426887 66.6183622,170.426887 L50.5318396,176.721612 L57.5259782,196.305185 Z" id="Path" fill="#FFB9B9"></path>
                <path d="M66.6183622,170.426865 L56.5183527,174.379042 L59.6242236,161.334487 L41.439461,161.56855 C41.439461,161.56855 35.8441327,201.201364 46.3353597,201.201364 C52.5660583,201.222316 58.7417141,200.034689 64.5201223,197.704012 L64.4671844,197.567239 L65.2195356,197.704012 C65.2195356,197.704012 87.6007835,183.715735 88.9996102,183.016343 C90.3984368,182.316951 66.6183622,170.426865 66.6183622,170.426865 Z" id="Path" fill="#000000" opacity="0.1"></path>
                <circle id="Oval" fill="#FFB9B9" cx="91.1917727" cy="83.9833824" r="19.971634"></circle>
                <path d="M73.5345014,61.452622 L69.6323606,59.8904152 C69.6323606,59.8904152 77.7913601,50.9078226 89.1431081,51.6889504 L85.9503488,48.1739812 C85.9503488,48.1739812 93.7546304,45.0496327 100.849433,53.2510975 C104.579023,57.5624343 108.89421,62.6301791 111.584279,68.3389379 L115.763209,68.3389379 L114.01908,72.1793115 L120.12353,76.0196852 L113.857907,75.3298279 C114.45139,78.6453251 114.248266,82.0544085 113.265286,85.2759754 L113.433232,88.311407 C113.433232,88.311407 106.170494,77.0744509 106.170494,75.5122441 L106.170494,79.4177258 C106.170494,79.4177258 102.268353,75.9028162 102.268353,73.5595359 L100.139927,76.2933774 L99.0757133,71.9973345 L85.9503542,76.2933774 L88.0787809,72.7784677 L79.9198085,73.9501079 L83.1125677,69.6540651 C83.1125677,69.6540651 73.8893603,74.7311814 73.5345502,79.0272243 C73.1798595,83.3232074 68.5682937,88.7908904 68.5682937,88.7908904 L66.4398671,84.8854142 C66.4398671,84.8854142 63.2470753,67.3108065 73.5345014,61.452622 Z" id="Path" fill="#2F2E41"></path>
                <path d="M108.583199,149.444449 C108.583199,149.444449 102.987871,155.739175 102.987871,164.831553 L65.9189326,163.432727 C65.9189326,163.432727 56.1271353,162.0339 56.1271353,169.028055 L56.1271353,176.022194 C56.1271353,176.022194 61.023034,173.923954 63.8206927,176.022194 C66.6183514,178.120433 96.6931459,196.305191 111.380842,189.311063 C126.068538,182.316935 129.565604,155.039778 129.565604,155.039778 C129.565604,155.039778 116.276773,143.849137 108.583199,149.444449 Z" id="Path" fill="#FFB9B9"></path>
                <path d="M116.97617,114.473751 L122.571498,113.774337 C122.571498,113.774337 133.762117,115.173164 132.36329,136.854999 C130.964464,158.536833 130.26505,159.93566 130.26505,159.93566 C130.26505,159.93566 115.577381,146.646791 105.086149,152.941516 L116.97617,114.473751 Z" id="Path" fill="#D0CDE1"></path>
                <path d="M49.8324534,133.357927 L47.0348001,133.357927 C43.4102261,137.93637 41.4385381,143.604957 41.4394718,149.444449 C41.3752286,155.698818 40.5532522,161.922353 38.9915198,167.97894 L61.0230611,164.132162 L49.8324534,133.357927 Z" id="Path" fill="#D0CDE1"></path>
                <rect id="Rectangle" fill="#3F3D56" x="396.722196" y="221.90747" width="1.08468126" height="28.1635807"></rect>
                <path d="M397.264537,215.361251 C398.407477,218.441528 400.357576,222.263381 402.423129,224.632417 L397.264537,222.766532 L392.107002,224.632417 C394.172561,222.263381 396.122655,218.441528 397.264537,215.361251 Z" id="Path" fill="#3F3D56"></path>
                <rect id="Rectangle" fill="#3F3D56" x="266.560446" y="197.502142" width="1.08468126" height="28.1635807"></rect>
                <path d="M267.102786,190.955922 C268.245726,194.0362 270.195825,197.858053 272.261379,200.227089 L267.102786,198.361204 L261.945252,200.227089 C264.01081,197.858053 265.960904,194.0362 267.102786,190.955922 Z" id="Path" fill="#3F3D56"></path>
                <rect id="Rectangle" fill="#3F3D56" x="446.617534" y="175.808517" width="1.08468126" height="28.1635807"></rect>
                <path d="M447.159875,169.262297 C448.302814,172.342575 450.252914,176.164428 452.318467,178.533464 L447.159875,176.667579 L442.00234,178.533464 C444.067899,176.164428 446.017993,172.342575 447.159875,169.262297 Z" id="Path" fill="#3F3D56"></path>
            </g>
        </g>
    </g>
</svg>